<svg width="157" height="138" viewBox="0 0 157 138" fill="none" xmlns="http://www.w3.org/2000/svg">
<path d="M68.6108 35.2412L47.4127 4.18852C46.5411 2.9111 45.3079 1.85389 43.8334 1.11986C42.3588 0.385832 40.6931 1.82884e-05 38.9984 0H4.91524C0.944235 0 -1.38011 3.92707 0.895171 6.7868L35.0152 49.6315C44.1286 42.1466 55.7196 37.0093 68.6108 35.2412ZM152.085 0H118.002C114.555 0 111.36 1.59023 109.587 4.18852L88.3892 35.2412C101.28 37.0093 112.871 42.1466 121.985 49.6288L156.105 6.7868C158.38 3.92707 156.056 0 152.085 0ZM78.5 43.125C48.6944 43.125 24.5311 64.3641 24.5311 90.5625C24.5311 116.761 48.6944 138 78.5 138C108.306 138 132.469 116.761 132.469 90.5625C132.469 64.3641 108.306 43.125 78.5 43.125ZM106.87 85.5115L95.2396 95.4734L97.9901 109.548C98.4808 112.071 95.4573 113.998 92.8846 112.807L78.5 106.163L64.1185 112.807C61.5427 114.006 58.5223 112.068 59.0129 109.548L61.7635 95.4734L50.1326 85.5115C48.0413 83.7218 49.1973 80.5979 52.0798 80.2314L68.157 78.1721L75.3416 65.364C75.9886 64.2104 77.2397 63.6417 78.4939 63.6417C79.7542 63.6417 81.0145 64.2185 81.6615 65.364L88.8461 78.1721L104.923 80.2314C107.806 80.5979 108.962 83.7218 106.87 85.5115Z" fill="#0F3C9F"/>
</svg>
