<svg width="161" height="142" viewBox="0 0 161 142" fill="none" xmlns="http://www.w3.org/2000/svg">
<path d="M72.5044 7.33768C75.0266 0.220774 85.9816 0.220774 88.4954 7.33768L101.266 43.4554C101.816 45.0046 102.884 46.3545 104.319 47.3121C105.753 48.2698 107.481 48.7861 109.254 48.7873H150.576C158.723 48.7873 162.103 58.3692 155.52 62.7738L122.092 85.0904C120.656 86.0499 119.587 87.4025 119.039 88.9544C118.491 90.5063 118.491 92.1779 119.04 93.7296L131.802 129.847C134.325 136.972 125.455 142.891 118.872 138.487L85.4435 116.17C84.0068 115.21 82.2762 114.693 80.4999 114.693C78.7237 114.693 76.9931 115.21 75.5563 116.17L42.1281 138.487C35.5451 142.891 26.6752 136.964 29.1974 129.847L41.96 93.7296C42.5088 92.1779 42.5091 90.5063 41.9609 88.9544C41.4127 87.4025 40.344 86.0499 38.9081 85.0904L5.4799 62.7738C-1.11157 58.3692 2.28506 48.7873 10.4235 48.7873H51.7379C53.5123 48.7877 55.2413 48.2721 56.6775 47.3144C58.1137 46.3567 59.1834 45.0059 59.7334 43.4554L72.5044 7.33768Z" stroke="#0F3C9F" stroke-width="4" stroke-linecap="round" stroke-linejoin="round"/>
</svg>
