<svg width="43" height="324" viewBox="0 0 43 324" fill="none" xmlns="http://www.w3.org/2000/svg">
<path d="M25.8903 34.9005L9.91579 42.6777L9.94794 46.9976L26.0361 54.4839L26.0025 49.972L14.9878 44.8128L25.9239 39.4123L25.8903 34.9005ZM26.0241 52.8725L10.0495 60.6497L10.0817 64.9696L26.1699 72.4559L26.1363 67.944L15.1216 62.7848L26.0577 57.3843L26.0241 52.8725ZM26.1579 70.8445L10.1833 78.6217L10.2154 82.9416L26.3036 90.4279L26.27 85.916L15.2553 80.7568L26.1914 75.3563L26.1579 70.8445ZM26.2916 88.8165L10.3171 96.5937L10.3492 100.914L26.4374 108.4L26.4038 103.888L15.3891 98.7288L26.3252 93.3283L26.2916 88.8165ZM26.4254 106.788L10.4508 114.566L10.483 118.886L26.5711 126.372L26.5375 121.86L15.5228 116.701L26.4589 111.3L26.4254 106.788ZM26.5591 124.76L10.5846 132.538L10.6167 136.858L26.7049 144.344L26.6713 139.832L15.6566 134.673L26.5927 129.272L26.5591 124.76ZM26.6929 142.732L10.7183 150.51L10.7505 154.83L26.8386 162.316L26.805 157.804L15.7903 152.645L26.7265 147.244L26.6929 142.732ZM26.8266 160.704L10.8521 168.482L10.8842 172.802L26.9724 180.288L26.9388 175.776L15.9241 170.617L26.8602 165.216L26.8266 160.704ZM26.9604 178.676L10.9858 186.454L11.018 190.774L27.1061 198.26L27.0726 193.748L16.0579 188.589L26.994 183.188L26.9604 178.676ZM27.0941 196.648L11.1196 204.426L11.1517 208.746L27.2399 216.232L27.2063 211.72L16.1916 206.561L27.1277 201.16L27.0941 196.648ZM27.2279 214.62L11.2533 222.398L11.2855 226.718L27.3737 234.204L27.3401 229.692L16.3254 224.533L27.2615 219.132L27.2279 214.62ZM27.3617 232.592L11.3871 240.37L11.4192 244.69L27.5074 252.176L27.4738 247.664L16.4591 242.505L27.3952 237.104L27.3617 232.592ZM27.4954 250.564L11.5209 258.342L11.553 262.662L27.6412 270.148L27.6076 265.636L16.5929 260.477L27.529 255.076L27.4954 250.564ZM27.6292 268.536L11.6546 276.314L11.6868 280.634L27.7749 288.12L27.7413 283.608L16.7266 278.449L27.6627 273.048L27.6292 268.536Z" fill="#0F3C9F"/>
<path d="M14.9674 35.126L31.0558 42.6443L31.088 46.9642L15.1132 54.7094L15.0796 50.1975L26.0162 44.8611L15.001 39.6378L14.9674 35.126ZM15.1012 53.098L31.1896 60.6163L31.2217 64.9362L15.2469 72.6814L15.2133 68.1695L26.1499 62.8331L15.1347 57.6098L15.1012 53.098ZM15.2349 71.07L31.3233 78.5883L31.3555 82.9082L15.3807 90.6534L15.3471 86.1415L26.2837 80.8051L15.2685 75.5818L15.2349 71.07ZM15.3687 89.042L31.4571 96.5603L31.4892 100.88L15.5144 108.625L15.4808 104.114L26.4174 98.7771L15.4023 93.5538L15.3687 89.042ZM15.5024 107.014L31.5908 114.532L31.623 118.852L15.6482 126.597L15.6146 122.086L26.5512 116.749L15.536 111.526L15.5024 107.014ZM15.6362 124.986L31.7246 132.504L31.7567 136.824L15.7819 144.569L15.7484 140.058L26.6849 134.721L15.6698 129.498L15.6362 124.986ZM15.7699 142.958L31.8583 150.476L31.8905 154.796L15.9157 162.541L15.8821 158.03L26.8187 152.693L15.8035 147.47L15.7699 142.958ZM15.9037 160.93L31.9921 168.448L32.0242 172.768L16.0494 180.513L16.0159 176.002L26.9525 170.665L15.9373 165.442L15.9037 160.93ZM16.0374 178.902L32.1258 186.42L32.158 190.74L16.1832 198.485L16.1496 193.974L27.0862 188.637L16.071 183.414L16.0374 178.902ZM16.1712 196.874L32.2596 204.392L32.2918 208.712L16.317 216.457L16.2834 211.946L27.22 206.609L16.2048 201.386L16.1712 196.874ZM16.305 214.846L32.3934 222.364L32.4255 226.684L16.4507 234.429L16.4171 229.918L27.3537 224.581L16.3385 219.358L16.305 214.846ZM16.4387 232.818L32.5271 240.336L32.5593 244.656L16.5845 252.401L16.5509 247.89L27.4875 242.553L16.4723 237.33L16.4387 232.818ZM16.5725 250.79L32.6609 258.308L32.693 262.628L16.7182 270.373L16.6846 265.862L27.6212 260.525L16.6061 255.302L16.5725 250.79ZM16.7062 268.762L32.7946 276.28L32.8268 280.6L16.852 288.345L16.8184 283.834L27.755 278.497L16.7398 273.274L16.7062 268.762Z" fill="#0F3C9F"/>
</svg>
